<svg version="1" xmlns="http://www.w3.org/2000/svg" width="1333.333" height="1333.333" viewBox="0 0 1000.000000 1000.000000"><path d="M89.5 11.7c-23.6 2.8-42.3 11.4-58.3 26.7C18.7 50.3 8.6 67.3 3.8 84.5l-2.3 8-.3 402c-.2 295 0 404.1.8 410 5.5 38.4 34.1 70.5 72 80.7l8.5 2.3h832l8.5-2.3c11.5-3 26.8-10.8 36.7-18.7 13.5-10.7 25.6-27.8 31.2-44.3 5.4-16.1 5.1 10 4.9-426.7l-.3-403-2.3-8c-2.5-9-9.5-24.1-14.3-31.2-5.3-7.6-16.4-18.7-24.2-24.1-11.7-8.1-21-12.2-35.7-16-6-1.5-38.1-1.6-416.5-1.8-225.5 0-411.3.1-413 .3zm538 260.3l129-129 49.5 49.5 49.5 49.5-129 129-129 129 128.8 128.8L855 757.5 805.5 807 756 856.5 627.2 727.7 498.5 599 369.8 727.7 241 856.5 191.5 807 142 757.5l128.7-128.7L399.5 500l-129-129-129-129 49.5-49.5 49.5-49.5 129 129 129 129 129-129z"/></svg>